<?xml version="1.0" encoding="iso-8859-1"?>
<!-- Generator: Adobe Illustrator 19.0.0, SVG Export Plug-In . SVG Version: 6.00 Build 0)  -->
<svg version="1.1" id="Capa_1" xmlns="http://www.w3.org/2000/svg" xmlns:xlink="http://www.w3.org/1999/xlink" x="0px" y="0px"
	 viewBox="0 0 512.024 512.024" style="enable-background:new 0 0 512.024 512.024;" xml:space="preserve">
<path style="fill:#607D8B;" d="M261.921,492.459l-91.243-60.843V416c-0.003-4.589-2.942-8.662-7.296-10.112l-29.611-9.877
	l-19.563-19.563c-2.554-2.561-6.233-3.653-9.771-2.901l-11.307,2.496c-55.12,16.876-92.853,67.646-93.12,125.291
	c0,5.891,4.776,10.667,10.667,10.667h245.333c5.891-0.005,10.663-4.784,10.658-10.675
	C266.668,497.762,264.886,494.435,261.921,492.459z"/>
<path style="fill:#FFE082;" d="M373.345,170.667c-0.651,0.015-1.3,0.079-1.941,0.192H140.641c-0.648-0.114-1.304-0.179-1.963-0.192
	c-18.24,0-32,22.933-32,53.333c0,29.675,13.099,52.224,30.677,53.333C156.748,341.589,203.489,384,256.012,384
	s99.264-42.453,118.656-106.667c17.579-1.067,30.677-23.616,30.677-53.333C405.345,193.6,391.585,170.667,373.345,170.667z"/>
<path style="fill:#607D8B;" d="M417.591,375.701l-10.027-2.133c-3.538-0.752-7.216,0.34-9.771,2.901l-19.563,19.563l-29.611,9.877
	c-4.338,1.455-7.265,5.515-7.275,10.091v15.616l-91.243,60.843c-4.901,3.268-6.225,9.891-2.957,14.792
	c1.977,2.965,5.303,4.746,8.866,4.749h245.333c5.891,0,10.667-4.776,10.667-10.667C511.602,443.245,473.275,392.247,417.591,375.701
	z"/>
<g>
	<path style="fill:#455A64;" d="M259.98,182.272c-7.808-8.128-21.739-11.605-46.635-11.605c-25.877,0-39.595,3.371-47.339,11.605
		c-5.657,7.043-7.935,16.216-6.229,25.088c0.107,1.92,0.256,3.925,0.256,5.952c-2.001,21.563,13.856,40.665,35.419,42.667
		c2.411,0.224,4.837,0.224,7.248,0c26.731,0,64-16.235,64-42.667c0-1.771,0-3.52,0.149-5.227
		C268.389,198.893,265.885,189.483,259.98,182.272z"/>
	<path style="fill:#455A64;" d="M346.316,182.272c-7.744-8.235-21.461-11.605-47.339-11.605c-24.896,0-38.827,3.477-46.635,11.605
		c-5.903,7.22-8.4,16.638-6.848,25.835c0,1.707,0.149,3.435,0.149,5.227c0,26.432,37.099,42.667,63.701,42.667
		c21.859,1.857,41.086-14.358,42.943-36.217c0.182-2.146,0.19-4.303,0.022-6.449c0-2.133,0.128-4.032,0.256-5.952
		C354.273,198.5,351.987,189.317,346.316,182.272z"/>
</g>
<path style="fill:#607D8B;" d="M375.137,96.149c-5.802-0.992-11.31,2.903-12.309,8.704c-0.053,0.596-0.053,1.196,0,1.792H149.132
	c0.053-0.596,0.053-1.196,0-1.792c-0.999-5.801-6.508-9.696-12.309-8.704c-82.731,14.208-94.144,28.821-94.144,42.517
	C42.679,180.779,176.78,192,256.012,192s213.333-11.221,213.333-53.333C469.345,124.971,457.932,110.357,375.137,96.149z"/>
<path style="fill:#455A64;" d="M383.799,125.867c0.824,4.307-1.029,8.686-4.693,11.093c-37.712,20.468-80.21,30.485-123.093,29.013
	c-42.883,1.471-85.381-8.545-123.093-29.013c-3.665-2.408-5.517-6.787-4.693-11.093c2.477-11.801,5.756-23.419,9.813-34.773
	c2.599-7.756,5.589-15.374,8.96-22.827C164.279,30.08,188.812,0,213.345,0c15.801,0.228,30.975,6.222,42.667,16.853
	C267.704,6.222,282.877,0.228,298.679,0c24.533,0,49.067,30.08,66.347,68.267c3.371,7.452,6.361,15.071,8.96,22.827
	C378.042,102.448,381.321,114.066,383.799,125.867z"/>
<path style="fill:#607D8B;" d="M373.985,91.093C359.905,105.387,326.412,128,256.012,128s-103.893-22.613-117.973-36.907
	c2.599-7.756,5.589-15.374,8.96-22.827c0.424,0.445,0.783,0.948,1.067,1.493c0.64,0.853,22.187,36.907,107.947,36.907
	c86.613,0,107.733-36.693,107.947-36.907c0.283-0.546,0.642-1.048,1.067-1.493C368.396,75.719,371.387,83.338,373.985,91.093z"/>
<g>
	<path style="fill:#455A64;" d="M264.801,495.296L147.468,324.629c-2.693-3.915-7.652-5.577-12.16-4.075l-64,21.333
		c-5.602,1.822-8.667,7.84-6.846,13.442c0.517,1.59,1.4,3.036,2.579,4.222l53.333,53.333c1.198,1.185,2.66,2.07,4.267,2.581
		l24.704,8.213v13.653c0.002,3.568,1.787,6.898,4.757,8.875l96,64c4.9,3.27,11.523,1.949,14.794-2.951
		c2.427-3.636,2.389-8.385-0.095-11.983V495.296z"/>
	<path style="fill:#455A64;" d="M440.716,341.888l-64-21.333c-4.508-1.502-9.467,0.159-12.16,4.075L247.223,495.296
		c-3.348,4.848-2.132,11.491,2.716,14.838c3.597,2.484,8.346,2.522,11.983,0.095l96-64c2.976-1.981,4.763-5.321,4.757-8.896V423.68
		l24.704-8.235c1.606-0.511,3.068-1.396,4.267-2.581l53.333-53.333c4.153-4.178,4.133-10.932-0.045-15.085
		c-1.186-1.179-2.632-2.062-4.222-2.579V341.888z"/>
</g>
<g>
</g>
<g>
</g>
<g>
</g>
<g>
</g>
<g>
</g>
<g>
</g>
<g>
</g>
<g>
</g>
<g>
</g>
<g>
</g>
<g>
</g>
<g>
</g>
<g>
</g>
<g>
</g>
<g>
</g>
</svg>
